<?xml version="1.0" encoding="UTF-8" standalone="no"?>
<!-- Created with Inkscape (http://www.inkscape.org/) -->

<svg
   xmlns:dc="http://purl.org/dc/elements/1.1/"
   xmlns:cc="http://creativecommons.org/ns#"
   xmlns:rdf="http://www.w3.org/1999/02/22-rdf-syntax-ns#"
   xmlns:svg="http://www.w3.org/2000/svg"
   xmlns="http://www.w3.org/2000/svg"
   xmlns:sodipodi="http://sodipodi.sourceforge.net/DTD/sodipodi-0.dtd"
   xmlns:inkscape="http://www.inkscape.org/namespaces/inkscape"
   width="50mm"
   height="50mm"
   viewBox="0 0 50 50"
   version="1.1"
   id="svg1564"
   inkscape:version="0.92.4 (unknown)"
   sodipodi:docname="webpusherr.svg">
  <defs
     id="defs1558" />
  <sodipodi:namedview
     id="base"
     pagecolor="#ffffff"
     bordercolor="#666666"
     borderopacity="1.0"
     inkscape:pageopacity="0.0"
     inkscape:pageshadow="2"
     inkscape:zoom="0.35"
     inkscape:cx="738.7739"
     inkscape:cy="-265.5118"
     inkscape:document-units="mm"
     inkscape:current-layer="layer1"
     showgrid="false"
     inkscape:window-width="1366"
     inkscape:window-height="725"
     inkscape:window-x="0"
     inkscape:window-y="0"
     inkscape:window-maximized="1" />
  <metadata
     id="metadata1561">
    <rdf:RDF>
      <cc:Work
         rdf:about="">
        <dc:format>image/svg+xml</dc:format>
        <dc:type
           rdf:resource="http://purl.org/dc/dcmitype/StillImage" />
        <dc:title></dc:title>
      </cc:Work>
    </rdf:RDF>
  </metadata>
  <g
     inkscape:label="Layer 1"
     inkscape:groupmode="layer"
     id="layer1"
     transform="translate(220.03571,-28.583337)">
    <g
       id="g2155">
      <g
         transform="matrix(0,-0.61803941,0.61803941,0,-352.74134,-388.52011)"
         id="g1486">
        <path
           inkscape:connector-curvature="0"
           id="path1463"
           transform="matrix(0,0.26458333,-0.26458333,0,-525.05333,1036.0764)"
           d="m -3004.6035,671.91992 17.7168,35.4336 h -64.961 v 23.62109 h 64.961 l -17.7168,35.43359 h 11.8105 11.8106 l 23.623,-47.24414 -23.623,-47.24414 h -11.8106 z m 35.4316,0 23.6231,47.24414 -23.6231,47.24414 h 11.8106 11.8125 l 23.6211,-47.24414 -23.6211,-47.24414 h -11.8125 z m 35.4336,0 23.6211,47.24414 -23.6211,47.24414 h 11.8106 11.8105 l 23.6231,-47.24414 -23.6231,-47.24414 h -11.8105 z m 35.4336,0 23.6211,47.24414 -23.6211,47.24414 h 11.8106 11.8105 l 23.6231,-47.24414 -23.6231,-47.24414 h -11.8105 z"
           style="opacity:1;vector-effect:none;fill:#1983bc;fill-opacity:1;stroke:none;stroke-width:3.86765432;stroke-linecap:round;stroke-linejoin:miter;stroke-miterlimit:4;stroke-dasharray:none;stroke-dashoffset:0;stroke-opacity:1;paint-order:fill markers stroke" />
      </g>
      <g
         id="g1534"
         transform="matrix(1.4984558,0,0,1.4984558,418.67573,-237.20559)">
        <g
           transform="matrix(1.3528057,0,0,1.3528057,80.25564,-87.004464)"
           id="g1518">
          <path
             d="m -364.53081,195.44028 h 2.37298 v 0.8344 h -0.63665 l -2.08842,6.47747 h -1.47588 l -1.98231,-6.37136 -1.82796,6.37136 h -1.46141 l -2.13183,-6.47747 h -0.6463 v -0.8344 h 2.37298 v 0.8344 h -0.63665 l 1.77009,5.61896 1.86655,-6.45336 h 1.44212 l 1.98713,6.45336 1.80385,-5.61896 h -0.72829 z"
             style="font-style:normal;font-variant:normal;font-weight:normal;font-stretch:normal;font-size:9.8777771px;line-height:1.25;font-family:Arvo;-inkscape-font-specification:Arvo;letter-spacing:0px;word-spacing:0px;fill:#1983bc;fill-opacity:1;stroke:none;stroke-width:0.26458332"
             id="path1512"
             inkscape:connector-curvature="0" />
          <path
             d="m -361.41989,195.44028 h 5.23792 v 2.06913 h -0.98874 v -1.23473 h -2.60932 v 2.33922 h 2.19453 v 0.82958 h -2.19453 v 2.47909 h 2.60932 v -1.23472 h 0.98874 v 2.0643 h -5.23792 v -0.82958 h 0.69453 v -5.64789 h -0.69453 z"
             style="font-style:normal;font-variant:normal;font-weight:normal;font-stretch:normal;font-size:9.8777771px;line-height:1.25;font-family:Arvo;-inkscape-font-specification:Arvo;letter-spacing:0px;word-spacing:0px;fill:#1983bc;fill-opacity:1;stroke:none;stroke-width:0.26458332"
             id="path1514"
             inkscape:connector-curvature="0" />
          <path
             d="m -355.20769,201.92257 h 0.69453 v -5.64789 h -0.69453 v -0.84404 l 3.28937,0.01 q 0.44373,0 0.8344,0.16881 0.39068,0.16399 0.68007,0.45338 0.28938,0.28456 0.45337,0.67524 0.16881,0.39067 0.16881,0.83922 0,0.46784 -0.26045,0.8537 -0.26045,0.38585 -0.74276,0.61736 0.23633,0.1254 0.42926,0.29421 0.19292,0.16398 0.32797,0.36173 0.13505,0.19775 0.2074,0.41962 0.0772,0.22186 0.0772,0.45337 0,0.4582 -0.16881,0.85369 -0.16399,0.3955 -0.45338,0.68971 -0.28939,0.29421 -0.68006,0.46302 -0.38585,0.16881 -0.82958,0.16881 h -3.33278 z m 1.63986,-2.42121 v 2.42121 h 1.70257 q 0.23151,0 0.42926,-0.11575 0.19774,-0.11576 0.34726,-0.29904 0.14952,-0.1881 0.23151,-0.42443 0.0868,-0.23633 0.0868,-0.48231 0,-0.21222 -0.0868,-0.40997 -0.0868,-0.19775 -0.23633,-0.35209 -0.1447,-0.15434 -0.34727,-0.24598 -0.19775,-0.0916 -0.42443,-0.0916 z m 0,-3.22668 v 2.38746 h 1.65916 q 0.23151,0 0.42926,-0.0916 0.20257,-0.0916 0.34726,-0.24598 0.14952,-0.15434 0.23634,-0.35692 0.0868,-0.20257 0.0868,-0.41961 0,-0.23633 -0.0868,-0.46302 -0.0868,-0.23151 -0.23634,-0.40997 -0.14951,-0.17845 -0.35209,-0.28938 -0.19774,-0.11094 -0.42443,-0.11094 z"
             style="font-style:normal;font-variant:normal;font-weight:normal;font-stretch:normal;font-size:9.8777771px;line-height:1.25;font-family:Arvo;-inkscape-font-specification:Arvo;letter-spacing:0px;word-spacing:0px;fill:#1983bc;fill-opacity:1;stroke:none;stroke-width:0.26458332"
             id="path1516"
             inkscape:connector-curvature="0" />
        </g>
        <g
           id="g1532"
           transform="matrix(1.0011901,0,0,1.0011901,-76.739021,5.4750648)">
          <path
             d="m -349.09196,197.75539 h 1.59163 v 0.41479 q 0.31833,-0.24598 0.69453,-0.39068 0.37621,-0.14469 0.77653,-0.14469 0.49196,0 0.90192,0.18328 0.40997,0.18328 0.70418,0.51607 0.29904,0.3328 0.46302,0.80064 0.16399,0.46302 0.16399,1.02733 0,0.60289 -0.18328,1.09967 -0.18328,0.49679 -0.51125,0.8537 -0.32315,0.35209 -0.7717,0.54984 -0.44856,0.19774 -0.98392,0.19774 -0.38103,0 -0.68006,-0.082 -0.29422,-0.0772 -0.56431,-0.20257 v 1.61575 h 0.78135 v 0.82958 h -2.37299 v -0.82958 h 0.68489 v -5.6093 h -0.69453 z m 2.82635,0.67041 q -0.34726,0 -0.67041,0.13987 -0.31833,0.13987 -0.55466,0.38585 v 2.70578 q 0.15916,0.16399 0.45337,0.29421 0.29904,0.13023 0.74277,0.13023 0.30868,0 0.59324,-0.12058 0.28457,-0.12058 0.50161,-0.35691 0.21704,-0.24116 0.34726,-0.59325 0.13023,-0.35209 0.13023,-0.81511 0,-0.42443 -0.1254,-0.75241 -0.12058,-0.32797 -0.3328,-0.55466 -0.2074,-0.22668 -0.48714,-0.34244 -0.27974,-0.12058 -0.59807,-0.12058 z"
             style="font-style:normal;font-variant:normal;font-weight:normal;font-stretch:normal;font-size:9.8777771px;line-height:1.25;font-family:Arvo;-inkscape-font-specification:Arvo;letter-spacing:0px;word-spacing:0px;fill:#333333;fill-opacity:1;stroke:none;stroke-width:0.26458332"
             id="path1520"
             inkscape:connector-curvature="0" />
          <path
             d="m -339.86531,197.75539 h 1.61093 v 4.16718 h 0.55466 v 0.82958 h -1.45659 v -0.46302 q -0.33762,0.26045 -0.73794,0.40515 -0.39549,0.14469 -0.84887,0.14469 -0.3762,0 -0.68488,-0.10611 -0.30386,-0.11093 -0.5209,-0.33762 -0.21222,-0.23151 -0.32797,-0.5836 -0.11576,-0.35209 -0.11576,-0.83922 v -2.38745 h -0.67524 v -0.82958 h 1.61093 v 3.11092 q 0,0.57395 0.26527,0.86816 0.26527,0.29421 0.76206,0.29421 0.29421,0 0.61736,-0.10611 0.32797,-0.10611 0.61736,-0.29421 v -3.04339 h -0.67042 z"
             style="font-style:normal;font-variant:normal;font-weight:normal;font-stretch:normal;font-size:9.8777771px;line-height:1.25;font-family:Arvo;-inkscape-font-specification:Arvo;letter-spacing:0px;word-spacing:0px;fill:#333333;fill-opacity:1;stroke:none;stroke-width:0.26458332"
             id="path1522"
             inkscape:connector-curvature="0" />
          <path
             d="m -333.46983,199.09622 q 0,-0.20257 -0.0965,-0.34244 -0.0916,-0.1447 -0.24116,-0.23152 -0.14952,-0.0916 -0.3328,-0.13022 -0.18328,-0.0434 -0.35691,-0.0434 -0.19292,0 -0.35691,0.0434 -0.15916,0.0434 -0.27492,0.1254 -0.11575,0.082 -0.18328,0.20257 -0.0627,0.11576 -0.0627,0.26045 0,0.25081 0.14952,0.40032 0.15434,0.1447 0.51125,0.2701 l 0.9598,0.33762 q 0.61736,0.20739 0.90193,0.5643 0.28456,0.35692 0.28456,0.8537 0,0.33279 -0.13504,0.61254 -0.13023,0.27492 -0.37621,0.47266 -0.24115,0.19293 -0.5836,0.29904 -0.34244,0.11093 -0.76205,0.11093 -0.5836,0 -0.95016,-0.1881 -0.36656,-0.1881 -0.56431,-0.49679 h -0.5016 v -0.82957 h 0.99839 q 0,0.20739 0.0868,0.35691 0.0916,0.14469 0.23634,0.23633 0.14951,0.0916 0.33279,0.13505 0.18811,0.0434 0.38103,0.0434 0.1881,0 0.36174,-0.0434 0.17363,-0.0482 0.30385,-0.13505 0.13505,-0.0916 0.21222,-0.21704 0.0772,-0.1254 0.0772,-0.28456 0,-0.24116 -0.15916,-0.40997 -0.15434,-0.16881 -0.53055,-0.30386 l -0.95498,-0.35691 q -0.5836,-0.20739 -0.86816,-0.52572 -0.27974,-0.32315 -0.27974,-0.80546 0,-0.31833 0.11575,-0.58843 0.12058,-0.27009 0.34244,-0.46302 0.22669,-0.19775 0.54984,-0.30868 0.32315,-0.11093 0.73794,-0.11093 0.53537,0 0.8971,0.14952 0.36174,0.14951 0.65113,0.51125 h 0.46784 v 0.82958 z"
             style="font-style:normal;font-variant:normal;font-weight:normal;font-stretch:normal;font-size:9.8777771px;line-height:1.25;font-family:Arvo;-inkscape-font-specification:Arvo;letter-spacing:0px;word-spacing:0px;fill:#333333;fill-opacity:1;stroke:none;stroke-width:0.26458332"
             id="path1524"
             inkscape:connector-curvature="0" />
          <path
             d="m -331.502,195.24736 h 1.58199 v 3.05786 h 0.0289 q 0.13505,-0.13504 0.30868,-0.2508 0.17846,-0.12058 0.37138,-0.20739 0.19293,-0.0868 0.40032,-0.13505 0.2074,-0.0482 0.43408,-0.0482 0.40032,0 0.72347,0.11093 0.32315,0.11093 0.54984,0.33762 0.22669,0.22669 0.34727,0.5836 0.1254,0.35209 0.1254,0.8344 v 2.39227 h 0.75241 v 0.82958 h -2.37298 v -0.82958 h 0.68488 v -2.28134 q 0,-0.57395 -0.29421,-0.86816 -0.28939,-0.29904 -0.8344,-0.29904 -0.30868,0 -0.62701,0.14952 -0.31833,0.14469 -0.59807,0.36656 v 2.93246 h 0.72347 v 0.82958 h -2.37298 v -0.82958 h 0.75241 v -5.84563 h -0.68489 z"
             style="font-style:normal;font-variant:normal;font-weight:normal;font-stretch:normal;font-size:9.8777771px;line-height:1.25;font-family:Arvo;-inkscape-font-specification:Arvo;letter-spacing:0px;word-spacing:0px;fill:#333333;fill-opacity:1;stroke:none;stroke-width:0.26458332"
             id="path1526"
             inkscape:connector-curvature="0" />
          <path
             d="m -324.18048,200.36952 q 0,0.21222 0.0289,0.39068 0.0338,0.17363 0.0916,0.33279 0.17846,0.48232 0.56913,0.7283 0.3955,0.24115 0.89228,0.24115 0.39067,0 0.75723,-0.1061 0.37138,-0.11094 0.77653,-0.34245 l 0.36173,0.61254 q -0.49196,0.33762 -0.98874,0.50161 -0.49679,0.16398 -1.03215,0.16398 -0.50643,0 -0.94051,-0.16881 -0.42926,-0.16881 -0.74277,-0.5016 -0.30868,-0.3328 -0.48713,-0.82958 -0.17364,-0.49678 -0.17364,-1.15755 0,-0.53537 0.14952,-1.00804 0.14952,-0.47749 0.44373,-0.82958 0.29903,-0.35691 0.73794,-0.5643 0.4389,-0.2074 1.0225,-0.2074 0.56431,0 0.94051,0.17363 0.38103,0.16881 0.61737,0.45338 0.24115,0.27974 0.36173,0.64148 0.1254,0.36173 0.17363,0.73794 0.0241,0.18327 0.0289,0.37138 0.01,0.1881 0.01,0.36655 z m 1.40353,-1.99195 q -0.3135,0 -0.54983,0.0916 -0.23151,0.0868 -0.3955,0.25563 -0.16399,0.16398 -0.26527,0.40514 -0.0965,0.24116 -0.1447,0.54019 h 2.59002 q -0.0193,-0.27974 -0.0916,-0.51607 -0.0675,-0.23634 -0.21222,-0.40997 -0.1447,-0.17363 -0.37138,-0.2701 -0.22669,-0.0965 -0.55949,-0.0965 z"
             style="font-style:normal;font-variant:normal;font-weight:normal;font-stretch:normal;font-size:9.8777771px;line-height:1.25;font-family:Arvo;-inkscape-font-specification:Arvo;letter-spacing:0px;word-spacing:0px;fill:#333333;fill-opacity:1;stroke:none;stroke-width:0.26458332"
             id="path1528"
             inkscape:connector-curvature="0" />
          <path
             d="m -315.76411,198.81165 h -0.9164 v -0.30868 q -0.15916,0 -0.32797,0.0627 -0.16399,0.0579 -0.30868,0.18328 -0.14469,0.12058 -0.25563,0.31351 -0.10611,0.1881 -0.15434,0.44855 v 2.41156 h 0.84887 v 0.82958 h -2.47909 v -0.82958 h 0.68971 l 0.005,-3.3376 h -0.69454 v -0.82958 h 1.59646 v 0.6897 q 0.0868,-0.15434 0.19293,-0.28456 0.11093,-0.13505 0.24115,-0.23151 0.13505,-0.10129 0.29421,-0.15434 0.16399,-0.0579 0.35209,-0.0579 0.25081,0 0.47267,0 0.22186,0 0.44373,0.01 z"
             style="font-style:normal;font-variant:normal;font-weight:normal;font-stretch:normal;font-size:9.8777771px;line-height:1.25;font-family:Arvo;-inkscape-font-specification:Arvo;letter-spacing:0px;word-spacing:0px;fill:#333333;fill-opacity:1;stroke:none;stroke-width:0.26458332"
             id="path1530"
             inkscape:connector-curvature="0" />
        </g>
      </g>
    </g>
  </g>
</svg>
